<svg width="36" height="36" fill="none" xmlns="http://www.w3.org/2000/svg"><path clip-rule="evenodd" d="M18 35c9.389 0 17-7.611 17-17S27.389 1 18 1 1 8.611 1 18s7.611 17 17 17z" stroke="#E5E5E5"/><path fill-rule="evenodd" clip-rule="evenodd" d="M16.225 17.399s1.74-.124 1.74-2.112c0-1.982-1.423-2.954-3.23-2.954H8.792v11.098h5.943s3.63.108 3.63-3.278c0 0 .156-2.754-2.14-2.754zm2.59 2.02c0-.022.006-4.261 4.387-4.261 4.625 0 3.975 4.817 3.975 4.817h-5.915c0 2.057 2.007 1.928 2.007 1.928 1.9 0 1.834-1.194 1.834-1.194h2.007c0 3.17-3.908 2.954-3.908 2.954-4.687 0-4.387-4.244-4.387-4.244zm4.431-2.636c-1.762 0-2.007 1.707-2.007 1.707h3.747s.028-1.707-1.74-1.707zm-8.511-2.479H11.41v2.479h3.12c.539 0 1.011-.168 1.011-1.323 0-1.156-.806-1.156-.806-1.156zm-.167 7.156H11.41v-2.97h3.325s1.207-.011 1.2 1.528c0 1.296-.894 1.431-1.367 1.442zm6.176-7.107v-1.366h4.715v1.366h-4.715z" fill="#666"/></svg>