<svg width="20" height="21" fill="none" xmlns="http://www.w3.org/2000/svg"><path fill-rule="evenodd" clip-rule="evenodd" d="M10 .444C4.486.444 0 4.976 0 10.546s4.486 10.1 10 10.1 10-4.53 10-10.1C20 4.976 15.514.444 10 .444zm6.58 4.768a8.54 8.54 0 011.866 5.203 20.643 20.643 0 00-3.908-.382c-.62 0-1.272.032-1.926.113-.055-.135-.11-.27-.169-.407-.17-.404-.352-.804-.541-1.198 2.956-1.232 4.382-2.942 4.678-3.33zm-1.014-1.067a8.365 8.365 0 00-7.47-1.9c.343.47 1.787 2.49 3.107 4.929 2.85-1.09 4.128-2.704 4.363-3.029zM6.371 2.854A55.26 55.26 0 019.462 7.72c-3.632.966-6.858 1.028-7.636 1.028h-.083a8.55 8.55 0 014.628-5.895zm-4.816 7.494a8.546 8.546 0 002.124 5.865c.357-.597 2.678-4.248 6.9-5.628.093-.03.187-.058.281-.085a28.767 28.767 0 00-.646-1.364c-3.75 1.125-7.39 1.213-8.438 1.213h-.221zM10 19.092a8.353 8.353 0 01-5.153-1.777c.241-.479 1.993-3.669 6.62-5.297a.056.056 0 01.01-.003c1.16 3.055 1.652 5.619 1.786 6.414a8.319 8.319 0 01-3.263.663zm3.166-7.496c1.05 2.93 1.506 5.334 1.619 5.991a8.559 8.559 0 003.549-5.63c-.321-.1-1.702-.49-3.468-.49-.538 0-1.111.036-1.7.129z" fill="#5A5A5A"/></svg>