<svg width="36" height="36" fill="none" xmlns="http://www.w3.org/2000/svg"><path clip-rule="evenodd" d="M18 35c9.389 0 17-7.611 17-17S27.389 1 18 1 1 8.611 1 18s7.611 17 17 17z" stroke="#E5E5E5"/><path d="M21.783 10.211l-1.999-.003c-2.246 0-3.697 1.492-3.697 3.8v1.753h-2.01a.315.315 0 00-.315.315v2.539c0 .174.141.315.315.315h2.01v6.406c0 .174.14.315.314.315h2.622a.315.315 0 00.315-.315V18.93h2.35a.314.314 0 00.314-.315l.001-2.54a.316.316 0 00-.314-.314h-2.351v-1.486c0-.713.17-1.076 1.098-1.076h1.347a.315.315 0 00.314-.315v-2.358a.315.315 0 00-.314-.315z" fill="#666"/></svg>