<svg width="36" height="36" fill="none" xmlns="http://www.w3.org/2000/svg"><path clip-rule="evenodd" d="M18 35c9.389 0 17-7.611 17-17S27.389 1 18 1 1 8.611 1 18s7.611 17 17 17z" stroke="#E5E5E5"/><path d="M8.223 17.962c-.12-3.202 2.631-6.16 5.774-6.198 1.603-.14 3.161.495 4.373 1.529a27.896 27.896 0 01-1.543 1.624c-1.068-.66-2.353-1.165-3.6-.717-2.012.584-3.23 3.006-2.486 5.013.617 2.095 3.117 3.246 5.077 2.365 1.014-.37 1.683-1.325 1.977-2.35-1.163-.024-2.326-.01-3.49-.042-.002-.705-.005-1.408-.002-2.113 1.94-.003 3.881-.01 5.823.008.12 1.729-.13 3.579-1.232 4.966-1.51 1.98-4.298 2.561-6.566 1.784-2.407-.806-4.157-3.278-4.105-5.87zm15.684-2.668h1.73l.011 1.772c.579.006 1.16.01 1.739.012v1.767l-1.739.009c-.006.593-.008 1.182-.012 1.775-.578-.003-1.157 0-1.733 0-.005-.593-.005-1.182-.011-1.772-.579-.006-1.16-.01-1.739-.012v-1.767c.579-.003 1.158-.006 1.739-.012.003-.59.009-1.182.015-1.772z" fill="#666"/></svg>