<svg width="22" height="15" fill="none" xmlns="http://www.w3.org/2000/svg"><path d="M.004 7.32C-.126 3.844 2.87.633 6.294.59c1.745-.151 3.443.537 4.764 1.66a30.352 30.352 0 01-1.682 1.764c-1.163-.718-2.563-1.265-3.921-.779-2.192.634-3.52 3.263-2.708 5.442.672 2.275 3.395 3.523 5.53 2.567 1.105-.402 1.834-1.438 2.153-2.551-1.266-.026-2.533-.01-3.8-.045-.003-.766-.006-1.529-.003-2.295 2.112-.003 4.228-.01 6.343.01.13 1.876-.142 3.884-1.343 5.39-1.643 2.15-4.68 2.78-7.151 1.937-2.622-.874-4.529-3.558-4.472-6.37zM18.01 3.681h1.983l.014 2.068c.663.007 1.33.01 1.993.013v2.06l-1.993.011c-.007.692-.01 1.38-.014 2.07-.663-.003-1.327 0-1.986 0-.007-.69-.007-1.378-.014-2.067-.663-.007-1.33-.01-1.993-.014v-2.06c.663-.003 1.327-.007 1.993-.014.004-.687.01-1.379.017-2.067z" fill="#5A5A5A"/></svg>