<svg width="36" height="36" fill="none" xmlns="http://www.w3.org/2000/svg"><path clip-rule="evenodd" d="M18 35c9.389 0 17-7.611 17-17S27.389 1 18 1 1 8.611 1 18s7.611 17 17 17z" stroke="#E5E5E5"/><path fill-rule="evenodd" clip-rule="evenodd" d="M14.813 9.5h6.374a5.313 5.313 0 015.313 5.313v6.374a5.313 5.313 0 01-5.313 5.313h-6.375A5.313 5.313 0 019.5 21.187v-6.375A5.313 5.313 0 0114.813 9.5zm6.374 15.406a3.723 3.723 0 003.72-3.718v-6.375a3.723 3.723 0 00-3.72-3.72h-6.375a3.723 3.723 0 00-3.718 3.72v6.374a3.723 3.723 0 003.719 3.72h6.374z" fill="#666"/><path fill-rule="evenodd" clip-rule="evenodd" d="M13.75 18a4.25 4.25 0 118.5 0 4.25 4.25 0 01-8.5 0zm1.594 0A2.66 2.66 0 0018 20.656 2.66 2.66 0 0020.656 18 2.66 2.66 0 0018 15.344 2.66 2.66 0 0015.344 18z" fill="#666"/><path d="M22.604 14.458a1.063 1.063 0 100-2.125 1.063 1.063 0 000 2.125z" fill="#666"/></svg>