<svg width="20" height="21" fill="none" xmlns="http://www.w3.org/2000/svg"><path fill-rule="evenodd" clip-rule="evenodd" d="M6.25.151h7.5C17.201.151 20 2.98 20 6.465v7.575c0 3.486-2.799 6.314-6.25 6.314h-7.5C2.799 20.354 0 17.526 0 14.04V6.465C0 2.979 2.799.15 6.25.15zm7.5 18.309c2.413 0 4.375-1.983 4.375-4.42V6.465c0-2.437-1.962-4.42-4.375-4.42h-7.5c-2.413 0-4.375 1.983-4.375 4.42v7.575c0 2.437 1.962 4.42 4.375 4.42h7.5z" fill="#666"/><path fill-rule="evenodd" clip-rule="evenodd" d="M5 10.252c0-2.789 2.239-5.05 5-5.05s5 2.261 5 5.05c0 2.79-2.239 5.051-5 5.051s-5-2.261-5-5.05zm1.875 0c0 1.74 1.402 3.157 3.125 3.157s3.125-1.417 3.125-3.157S11.723 7.096 10 7.096s-3.125 1.415-3.125 3.156z" fill="#5A5A5A"/><path d="M15 5.202c.552 0 1-.452 1-1.01s-.448-1.01-1-1.01-1 .452-1 1.01.448 1.01 1 1.01z" fill="#5A5A5A"/></svg>