<svg width="15" height="21" fill="none" xmlns="http://www.w3.org/2000/svg"><path d="M13.055 2.818C11.74 1.483 9.923.748 7.935.748 4.9.747 3.034 2.064 2.002 3.17.729 4.532 0 6.34 0 8.13c0 2.25.889 3.976 2.377 4.618.1.043.2.065.299.065.314 0 .562-.218.648-.566.05-.2.167-.694.218-.908.108-.424.02-.627-.216-.922-.43-.539-.63-1.176-.63-2.006 0-2.464 1.733-5.083 4.945-5.083 2.55 0 4.133 1.534 4.133 4.002 0 1.558-.317 3.001-.893 4.063-.4.738-1.103 1.617-2.184 1.617-.467 0-.886-.203-1.15-.557-.251-.334-.333-.767-.233-1.217.114-.51.269-1.04.419-1.554.273-.938.532-1.823.532-2.53 0-1.209-.702-2.02-1.747-2.02-1.328 0-2.368 1.426-2.368 3.249 0 .893.225 1.562.326 1.818-.167.75-1.16 5.21-1.35 6.05-.108.492-.765 4.369.322 4.678 1.221.347 2.313-3.429 2.424-3.855.09-.348.405-1.66.598-2.466.59.6 1.539 1.007 2.463 1.007 1.741 0 3.307-.83 4.41-2.335C14.41 11.817 15 9.78 15 7.545c0-1.748-.71-3.47-1.945-4.727z" fill="#5A5A5A"/></svg>