<svg width="36" height="36" fill="none" xmlns="http://www.w3.org/2000/svg"><path clip-rule="evenodd" d="M18 35c9.389 0 17-7.611 17-17S27.389 1 18 1 1 8.611 1 18s7.611 17 17 17z" stroke="#E5E5E5"/><path d="M22.809 11.8c-1.053-1.026-2.511-1.592-4.104-1.592-2.434 0-3.931 1.013-4.759 1.863-1.02 1.047-1.604 2.438-1.604 3.815 0 1.73.713 3.057 1.906 3.55.08.034.16.05.24.05.251 0 .45-.166.52-.435.04-.154.133-.533.174-.698.087-.325.016-.482-.173-.709-.345-.414-.506-.904-.506-1.542 0-1.895 1.39-3.91 3.966-3.91 2.043 0 3.313 1.18 3.313 3.079 0 1.198-.254 2.307-.716 3.124-.32.567-.885 1.244-1.75 1.244-.375 0-.711-.156-.924-.429a1.09 1.09 0 01-.186-.936c.091-.392.216-.8.336-1.195.22-.721.426-1.402.426-1.946 0-.93-.562-1.554-1.4-1.554-1.064 0-1.898 1.098-1.898 2.5 0 .686.18 1.2.261 1.398-.134.577-.93 4.006-1.082 4.653-.087.377-.614 3.359.258 3.597.979.267 1.854-2.637 1.943-2.965.072-.267.325-1.276.48-1.897.472.463 1.233.775 1.974.775 1.396 0 2.652-.638 3.535-1.796.857-1.123 1.33-2.689 1.33-4.408 0-1.344-.569-2.67-1.56-3.636z" fill="#666"/></svg>