<svg width="34" height="34" fill="none" xmlns="http://www.w3.org/2000/svg"><path fill-rule="evenodd" clip-rule="evenodd" d="M17 34c9.389 0 17-7.611 17-17S26.389 0 17 0 0 7.611 0 17s7.611 17 17 17z" fill="#C9A96E"/><path d="M24.792 12.134a6.344 6.344 0 01-1.837.507 3.224 3.224 0 001.406-1.78 6.374 6.374 0 01-2.03.78 3.184 3.184 0 00-2.334-1.016c-1.765 0-3.197 1.441-3.197 3.219 0 .252.028.498.083.733a9.055 9.055 0 01-6.59-3.363 3.222 3.222 0 00-.433 1.618c0 1.117.565 2.102 1.422 2.68a3.159 3.159 0 01-1.448-.404v.041c0 1.56 1.103 2.86 2.565 3.156a3.168 3.168 0 01-1.444.056 3.203 3.203 0 002.987 2.235 6.388 6.388 0 01-4.734 1.333 9 9 0 004.9 1.446c5.881 0 9.097-4.905 9.097-9.158a9.6 9.6 0 00-.009-.417 6.508 6.508 0 001.596-1.666z" fill="#fff"/></svg>