<svg width="20" height="18" fill="none" xmlns="http://www.w3.org/2000/svg"><path d="M20 2.62a7.983 7.983 0 01-2.357.667A4.229 4.229 0 0019.448.942a8.058 8.058 0 01-2.606 1.029A4.04 4.04 0 0013.846.633c-2.265 0-4.103 1.898-4.103 4.238 0 .333.036.656.107.966-3.41-.176-6.434-1.864-8.458-4.429A4.327 4.327 0 00.836 3.54c0 1.47.725 2.768 1.826 3.528a3.976 3.976 0 01-1.859-.53v.053c0 2.054 1.415 3.767 3.292 4.156a3.969 3.969 0 01-1.853.074c.522 1.683 2.037 2.909 3.833 2.943A8.067 8.067 0 010 15.518a11.339 11.339 0 006.29 1.905c7.547 0 11.674-6.459 11.674-12.06a12.5 12.5 0 00-.012-.549A8.478 8.478 0 0020 2.62z" fill="#5A5A5A"/></svg>