<svg width="16" height="20" fill="none" xmlns="http://www.w3.org/2000/svg"><path fill-rule="evenodd" clip-rule="evenodd" d="M5.049 7.665h-1.17l-.002-4.04L2.407.15h1.265l.746 2.58.735-2.573h1.28L5.05 3.622l-.001 4.043zm1.417-4.697c-.084.285-.126.68-.126 1.186V5.55c0 .462.022.808.07 1.04.045.23.122.428.232.59.108.162.26.285.457.366.196.082.434.12.717.12.253 0 .477-.046.673-.141.194-.094.354-.241.477-.438a1.7 1.7 0 00.244-.64c.038-.23.058-.589.058-1.078V4.036c0-.386-.02-.674-.062-.863a1.7 1.7 0 00-.23-.55 1.23 1.23 0 00-.475-.432 1.543 1.543 0 00-.739-.167c-.34 0-.621.087-.84.26-.22.172-.372.4-.456.684zm3.632 4.163a.75.75 0 00.267.338.778.778 0 00.456.127c.16 0 .302-.044.425-.133.124-.09.228-.222.313-.4l-.021.437h1.24V2.228h-.976v4.103a.407.407 0 01-.814 0V2.228H9.969v3.556c0 .453.008.755.022.908.015.152.05.298.107.44zM16 16.875v-5.66c0-1.358-1.178-2.47-2.618-2.47H2.618C1.178 8.745 0 9.857 0 11.215v5.66c0 1.357 1.177 2.468 2.618 2.468h10.764c1.44 0 2.618-1.11 2.618-2.468zm-6.419-3.996c-.266 0-.485.18-.485.4v2.975c0 .22.219.398.485.398.269 0 .488-.178.488-.398v-2.976c0-.22-.22-.4-.488-.4zm3.953 1.31H12.48l.005-.611c0-.272.223-.494.497-.494h.067c.274 0 .498.222.498.494l-.013.612zm-10.198 3.3v-5.962h1.333v-.883l-3.556-.006v.869l1.11.003v5.98h1.113zm2.887-5.074h1.112v5.073l-.893-.002.002-.657c-.24.515-1.2.93-1.7.569-.235-.169-.257-.449-.277-.71a6.415 6.415 0 00-.008-.11 7.343 7.343 0 01-.006-.552l.002-.456-.004-3.155h1.106l.005 3.206c0 .166-.003.306-.006.42-.004.187-.007.305.01.357.158.482.565.22.656-.027.017-.049.014-.152.009-.327a14.128 14.128 0 01-.008-.445v-3.184zm4.672 3.646l-.002-2.65c-.001-1.01-.757-1.615-1.784-.798l.005-1.97-1.111.002-.006 6.8.914-.014.083-.424c1.168 1.073 1.903.338 1.9-.946zm2.647-.347l.835-.004c.38 2.26-2.811 2.63-2.812.004v-1.58c0-.474.047-.847.142-1.12.094-.274.255-.477.467-.629.674-.486 2.008-.335 2.144.615.044.3.057.825.057 1.35v.719h-1.91v1.224c0 .249.206.451.456.451h.164c.25 0 .455-.202.455-.451v-.466l.001-.051.001-.062zM7.311 6.248c0 .298.222.542.493.542.27 0 .492-.243.492-.542V3.442c0-.299-.221-.542-.492-.542-.27 0-.493.243-.493.542v2.806z" fill="#5A5A5A"/></svg>